<?xml version="1.0" encoding="UTF-8" standalone="no"?>
<!-- Created with Inkscape (http://www.inkscape.org/) -->

<svg
   width="256"
   height="256"
   viewBox="0 0 67.733334 67.733334"
   version="1.1"
   id="svg5"
   xml:space="preserve"
   inkscape:version="1.2.1 (9c6d41e410, 2022-07-14)"
   sodipodi:docname="logo.svg"
   inkscape:export-filename="logo.png"
   inkscape:export-xdpi="96"
   inkscape:export-ydpi="96"
   xmlns:inkscape="http://www.inkscape.org/namespaces/inkscape"
   xmlns:sodipodi="http://sodipodi.sourceforge.net/DTD/sodipodi-0.dtd"
   xmlns="http://www.w3.org/2000/svg"
   xmlns:svg="http://www.w3.org/2000/svg"><sodipodi:namedview
     id="namedview7"
     pagecolor="#505050"
     bordercolor="#ffffff"
     borderopacity="1"
     inkscape:showpageshadow="0"
     inkscape:pageopacity="0"
     inkscape:pagecheckerboard="1"
     inkscape:deskcolor="#505050"
     inkscape:document-units="mm"
     showgrid="true"
     inkscape:zoom="3.5582879"
     inkscape:cx="88.244686"
     inkscape:cy="121.82825"
     inkscape:window-width="1920"
     inkscape:window-height="1018"
     inkscape:window-x="3833"
     inkscape:window-y="567"
     inkscape:window-maximized="1"
     inkscape:current-layer="layer1"><inkscape:grid
       type="xygrid"
       id="grid396"
       spacingx="16.933333"
       spacingy="16.933333"
       empspacing="2"
       empcolor="#00e543"
       empopacity="0.30196078" /></sodipodi:namedview><defs
     id="defs2" /><g
     inkscape:label="Layer 1"
     inkscape:groupmode="layer"
     id="layer1"><rect
       style="fill:#ff0000;stroke-width:7.72259;stroke-linecap:round;paint-order:stroke markers fill"
       id="rect234"
       width="52.916668"
       height="39.6875"
       x="7.4083333"
       y="13.758333"
       ry="11.745118" /><path
       style="fill:#ffffff;stroke-width:0.00755706"
       d="m 31.516321,38.363674 v -7.756779 l -0.01857,-0.07058 c -0.04032,-0.153366 -0.04536,-0.200168 -0.04552,-0.42198 -1.22e-4,-0.166157 0.0026,-0.224484 0.01362,-0.290948 0.03117,-0.188164 0.07374,-0.34689 0.138836,-0.517659 0.413968,-1.086004 1.550857,-2.066775 2.817271,-2.430395 0.758349,-0.21774 1.498235,-0.183915 2.021051,0.09239 0.460518,0.243387 0.741506,0.652992 0.802239,1.169446 0.01311,0.111552 0.0048,0.392847 -0.01487,0.508108 -0.06559,0.382685 -0.210767,0.738809 -0.452589,1.110089 -0.601635,0.923725 -1.69713,1.664026 -2.790281,1.885586 -0.711386,0.144183 -1.342387,0.07002 -1.8213,-0.214079 l -0.05669,-0.03363 -0.0018,5.430117 c -0.0011,2.986568 -3.64e-4,5.431513 0.0011,5.433211 0.0052,0.0052 0.488154,-0.240539 0.670894,-0.341296 0.777269,-0.428571 1.56926,-0.974094 2.140575,-1.474438 0.768835,-0.673325 1.258776,-1.333398 1.529814,-2.061037 0.142265,-0.381933 0.197398,-0.714939 0.197373,-1.192066 -6.2e-5,-1.155701 -0.421362,-2.337862 -1.188091,-3.33377 -0.163613,-0.212519 -0.286122,-0.347985 -0.573083,-0.63369 -0.338784,-0.337306 -0.436924,-0.451718 -0.478182,-0.557488 -0.01663,-0.04259 -0.0159,-0.06352 0.003,-0.08762 0.04015,-0.05103 0.156781,-6.9e-5 0.372491,0.162745 0.261012,0.197012 0.387582,0.320209 0.78949,0.768469 0.753954,0.840912 1.297375,1.893436 1.512472,2.929427 0.08809,0.424315 0.117971,0.755895 0.111312,1.235504 -0.0048,0.339588 -0.02033,0.525296 -0.06666,0.79352 -0.100173,0.579727 -0.275365,1.082894 -0.57019,1.637582 -0.175566,0.330314 -0.311048,0.535498 -0.54046,0.818515 -0.200926,0.247879 -0.38638,0.446817 -0.848718,0.91043 -0.199061,0.199615 -0.467718,0.472315 -0.597006,0.606001 -0.129289,0.133683 -0.392941,0.404039 -0.585891,0.600787 -0.383948,0.391501 -0.591725,0.611863 -0.789761,0.837597 -0.682907,0.778408 -1.070606,1.438581 -1.250052,2.128582 l -0.02916,0.11209 -0.201387,0.0018 -0.201393,0.0018 z"
       id="path8423" /><path
       id="rect234-3"
       style="fill:#ffffff;stroke-width:7.72259;stroke-linecap:round;paint-order:stroke markers fill"
       d="m 33.510603,21.812664 c -10.654254,0 -18.973494,0.0034 -25.5059359,0.01447 -0.094089,0.288096 -0.1770604,0.580936 -0.2490804,0.8785 6.5670083,0.01137 14.9719933,0.01499 25.7550163,0.01499 11.248439,0 19.809636,-0.0045 26.49399,-0.01705 -0.07178,-0.296356 -0.154889,-0.587918 -0.248563,-0.874882 -6.646229,-0.01217 -15.15343,-0.01602 -26.245427,-0.01602 z m 0,4.842081 c -10.993141,0 -19.467397,0.0036 -26.0888461,0.0155 v 0.876433 c 6.6214491,0.01191 15.0957051,0.0155 26.0888461,0.0155 11.458543,0 20.094339,-0.0044 26.82782,-0.01757 v -0.872299 c -6.733481,-0.01317 -15.369277,-0.01757 -26.82782,-0.01757 z m 0,4.539258 c -10.993141,0 -19.467397,0.0036 -26.0888461,0.0155 v 0.876949 c 6.6214491,0.01191 15.0957051,0.0155 26.0888461,0.0155 11.458543,0 20.094339,-0.0044 26.82782,-0.01757 v -0.872816 c -6.733481,-0.01317 -15.369277,-0.01757 -26.82782,-0.01757 z m 0,4.539259 c -10.993141,0 -19.467397,0.0036 -26.0888461,0.0155 v 0.876949 c 6.6214491,0.01191 15.0957051,0.0155 26.0888461,0.0155 11.458543,0 20.094339,-0.0044 26.82782,-0.01757 v -0.872815 c -6.733481,-0.01317 -15.369277,-0.01757 -26.82782,-0.01757 z m 0,4.539258 c -10.993141,0 -19.467397,0.0036 -26.0888461,0.0155 v 0.876949 c 6.6214491,0.01191 15.0957051,0.0155 26.0888461,0.0155 11.458543,0 20.094339,-0.0044 26.82782,-0.01757 v -0.872815 c -6.733481,-0.01317 -15.369277,-0.01757 -26.82782,-0.01757 z" /><text
       xml:space="preserve"
       style="font-style:normal;font-variant:normal;font-weight:normal;font-stretch:normal;font-size:8.87562px;font-family:'French Script MT';-inkscape-font-specification:'French Script MT';text-align:center;text-anchor:middle;fill:#ffffff;fill-opacity:1;stroke:#ffffff;stroke-width:0.520057;stroke-linecap:round;stroke-dasharray:none;stroke-opacity:1;paint-order:stroke markers fill"
       x="21.958141"
       y="48.961487"
       id="text8516"><tspan
         sodipodi:role="line"
         id="tspan8514"
         style="font-style:normal;font-variant:normal;font-weight:normal;font-stretch:normal;font-family:'French Script MT';-inkscape-font-specification:'French Script MT';stroke-width:0.520057"
         x="21.958141"
         y="48.961487">Auto</tspan></text><path
       style="fill:#ffffff;stroke-width:0.0341007"
       d="m 27.266612,33.285338 c 0,-0.506396 -0.0047,-0.92072 -0.01023,-0.92072 -0.0056,0 -0.139923,0.03804 -0.298381,0.08454 -0.158457,0.0465 -0.299613,0.08485 -0.31368,0.08526 -0.01407,3.85e-4 -0.02558,-0.266246 -0.02558,-0.592529 v -0.593241 l 0.310457,-0.09523 c 0.170752,-0.05237 0.316759,-0.111657 0.324461,-0.131729 0.0077,-0.02007 0.0099,-0.506401 0.005,-1.080732 l -0.009,-1.044239 -0.315431,0.09348 -0.315431,0.09348 v -0.60165 -0.60165 l 0.323957,-0.09732 0.323957,-0.09732 v -0.967164 -0.967163 h 0.204047 0.204047 l 0.009,0.899755 0.0091,0.899756 0.621904,-0.192166 0.621904,-0.192165 4.39e-4,-0.929245 4.38e-4,-0.929245 h 0.204603 0.204604 v 0.852518 c 0,0.478696 0.01339,0.852518 0.03051,0.852518 0.02906,0 0.435929,-0.121248 0.536927,-0.160004 0.0403,-0.01547 0.04644,0.08333 0.03862,0.621789 l -0.0092,0.640173 -0.29838,0.0845 -0.298382,0.08449 v 1.05251 c 0,0.578882 0.01266,1.052512 0.02813,1.052512 0.01547,0 0.14092,-0.03836 0.278779,-0.08525 0.137857,-0.04689 0.263308,-0.08524 0.278778,-0.08524 0.01547,0 0.02813,0.281514 0.02813,0.625588 v 0.625589 l -0.306908,0.0921 -0.306906,0.0921 v 1.00439 1.004392 H 29.14229 28.937686 v -0.93777 c 0,-0.515773 -0.01151,-0.937889 -0.02558,-0.938035 -0.01407,-1.42e-4 -0.297956,0.07878 -0.630864,0.175408 l -0.605287,0.175676 v 0.984016 0.984014 h -0.204638 -0.204604 z m 1.133849,-2.493702 0.537087,-0.170413 v -1.058641 c 0,-0.832139 -0.0091,-1.055446 -0.04263,-1.043714 -0.02345,0.0081 -0.307207,0.09041 -0.630583,0.182677 l -0.587957,0.167751 -2.71e-4,1.069344 -2.7e-4,1.069344 0.09378,-0.02296 c 0.05157,-0.01263 0.335466,-0.09965 0.630863,-0.193381 z"
       id="path8580" /></g></svg>
