<?xml version="1.0" encoding="UTF-8" standalone="no"?>
<!-- Created with Inkscape (http://www.inkscape.org/) -->

<svg
   width="256"
   height="256"
   viewBox="0 0 67.733334 67.733334"
   version="1.1"
   id="svg5"
   xml:space="preserve"
   inkscape:version="1.2.1 (9c6d41e410, 2022-07-14)"
   sodipodi:docname="logo.svg"
   inkscape:export-filename="logo.png"
   inkscape:export-xdpi="96"
   inkscape:export-ydpi="96"
   xmlns:inkscape="http://www.inkscape.org/namespaces/inkscape"
   xmlns:sodipodi="http://sodipodi.sourceforge.net/DTD/sodipodi-0.dtd"
   xmlns="http://www.w3.org/2000/svg"
   xmlns:svg="http://www.w3.org/2000/svg"><sodipodi:namedview
     id="namedview7"
     pagecolor="#505050"
     bordercolor="#ffffff"
     borderopacity="1"
     inkscape:showpageshadow="0"
     inkscape:pageopacity="0"
     inkscape:pagecheckerboard="1"
     inkscape:deskcolor="#505050"
     inkscape:document-units="mm"
     showgrid="true"
     inkscape:zoom="3.5582879"
     inkscape:cx="124.07653"
     inkscape:cy="140.3765"
     inkscape:window-width="1920"
     inkscape:window-height="1018"
     inkscape:window-x="-6"
     inkscape:window-y="-6"
     inkscape:window-maximized="1"
     inkscape:current-layer="layer1"><inkscape:grid
       type="xygrid"
       id="grid396"
       spacingx="16.933333"
       spacingy="16.933333"
       empspacing="2"
       empcolor="#00e543"
       empopacity="0.30196078" /></sodipodi:namedview><defs
     id="defs2" /><g
     inkscape:label="Layer 1"
     inkscape:groupmode="layer"
     id="layer1"><rect
       style="fill:#ff0000;stroke-width:7.72259;stroke-linecap:round;paint-order:stroke markers fill"
       id="rect234"
       width="52.916668"
       height="39.6875"
       x="7.4083333"
       y="13.758333"
       ry="11.745118" /><path
       style="fill:#ffffff;stroke-width:0.011441"
       d="M 21.2944,35.790085 V 24.046712 L 21.26629,23.939858 C 21.20524,23.707669 21.19761,23.636813 21.19737,23.301 c -1.85e-4,-0.251552 0.0039,-0.339856 0.02061,-0.44048 0.04718,-0.28487 0.111639,-0.525174 0.210191,-0.783709 0.626727,-1.644155 2.34792,-3.128994 4.265207,-3.679496 1.148101,-0.329647 2.268252,-0.278438 3.059769,0.139873 0.697201,0.368476 1.122602,0.988598 1.214549,1.770483 0.01985,0.168884 0.0072,0.59475 -0.02251,0.76925 -0.0993,0.579366 -0.319091,1.118519 -0.685197,1.680619 -0.910845,1.398474 -2.569369,2.519252 -4.224345,2.854682 -1.077002,0.218286 -2.032306,0.106011 -2.757356,-0.324105 l -0.08582,-0.05092 -0.0027,8.220924 c -0.0016,4.521514 -5.52e-4,8.223037 0.0016,8.225608 0.0079,0.0079 0.739041,-0.364164 1.0157,-0.516705 1.176746,-0.648835 2.37578,-1.47473 3.240723,-2.232225 1.163978,-1.01938 1.905724,-2.018697 2.316061,-3.120306 0.215382,-0.578228 0.298851,-1.082382 0.298813,-1.804729 -9.3e-5,-1.749673 -0.637921,-3.539405 -1.79871,-5.047159 -0.247701,-0.321744 -0.433174,-0.526832 -0.867618,-0.959375 -0.512902,-0.510664 -0.661481,-0.683879 -0.723945,-0.844009 -0.02518,-0.06447 -0.02407,-0.09616 0.0046,-0.132652 0.06079,-0.07725 0.237359,-1.05e-4 0.563933,0.246388 0.395159,0.298266 0.58678,0.48478 1.195249,1.163423 1.141448,1.273098 1.96416,2.866567 2.289806,4.435005 0.133363,0.642391 0.178602,1.144387 0.16852,1.870491 -0.0072,0.514119 -0.03078,0.795272 -0.100923,1.201349 -0.151657,0.877678 -0.416889,1.639447 -0.863239,2.479217 -0.265798,0.500079 -0.470911,0.810717 -0.818229,1.239191 -0.304192,0.375276 -0.58496,0.676458 -1.284916,1.378345 -0.301369,0.302206 -0.708102,0.715061 -0.903837,0.917454 -0.195737,0.20239 -0.594894,0.611695 -0.88701,0.909562 -0.581278,0.592713 -0.895842,0.92633 -1.195658,1.26808 -1.033887,1.17847 -1.620843,2.177939 -1.892516,3.222566 l -0.04414,0.169698 -0.30489,0.0027 -0.304899,0.0027 z"
       id="path8423" /><path
       id="rect1004"
       style="fill:#ffffff;stroke:#ffffff;stroke-width:1.05568;stroke-linecap:round;paint-order:stroke markers fill"
       d="m 33.362528,24.45276 c 0,0 5.745375,1.123801 8.950192,5.077797 3.204817,3.953995 1.301847,11.165166 1.301847,11.165166 h -2.864114 l 4.802551,5.663763 4.361482,-5.663763 h -2.816049 c 0,0 1.50833,-7.662405 -2.603692,-12.629744 -4.112022,-4.967338 -10.902962,-6.9492 -10.902962,-6.9492 z"
       sodipodi:nodetypes="czccccczcc" /></g></svg>
